#!OML:ASF F:\VICON\USERDATA\INSTALL\rory3\rory3.ASF
:FULLY-SPECIFIED
:DEGREES
45
root 0.2968732318446737 18.381456157265262 32.51057117693583 -5.816213677716036 -2.5615819802937088 -9.988852468381827
lfemur -36.76553704258993 0.6007586623995853 -5.788959456612757
ltibia 60.780578508772734
lfoot -0.1830630300533751 -1.390019487618949
ltoes -1.5852825431719992
rfemur 15.479275396713843 9.18875466687515 39.848141562459574
rtibia -1.0378805175526296
rfoot -19.138867190209123 -8.304295477460643
rtoes 12.090296156765609
lowerback 7.207847663555104 1.556481523440465 9.044927821668502
upperback 0.6129370630491382 3.396745935576183 3.216386672755887
thorax -3.3457237375809923 1.4337078592865637 -2.552073732097601
lowerneck -14.405508213664096 -2.9640517400775295 -1.442777027466918
upperneck 24.724517748393776 -3.731249401425129 -0.9919342808119525
head 10.173214938432606 -1.942284421623096 -0.5759318796052443
lclavicle -1.6515803091053432e-15 -1.3448866631809969e-15
lhumerus -36.54872542460871 12.47473083501189 76.5485139106932
lradius -11.03663234950141
lwrist -6.022103400388243
lhand -29.680996009241962 30.33047244979015
lfingers 7.125020000000055
lthumb -3.0090031744830474 60.30169551753808
rclavicle -1.6515803091053438e-15 -1.3448866631809972e-15
rhumerus -11.993847962480139 -25.982227913596947 -72.39926567197293
rradius -3.012272045294658
rwrist 9.886484405653754
rhand -16.805496422517447 27.088639552139657
rfingers 7.125020000000055
rthumb 9.422012835841924 -8.67163434048494
46
root 0.3372856277729446 18.32951056625395 30.63536479479957 -5.4096501942569235 -2.778563076922437 -9.641892359251885
lfemur -37.5715319323151 0.1628294711552325 -6.422278621209381
ltibia 53.498021412116216
lfoot -3.3792877841070807 0.6846621138668816
ltoes -1.3722026930842137
rfemur 17.067601645944563 9.116002280075236 39.043492298793325
rtibia 0.9513476858989094
rfoot -18.074902170429983 -8.479316057963933
rtoes 11.196229217056715
lowerback 7.210347702511166 1.8685432238934654 8.933164938892201
upperback 0.5890812341944618 3.7752538006406575 2.9218711841901692
thorax -3.3469930758378506 1.6175929197873131 -2.8419147654969072
lowerneck -14.510583291235411 -3.091083057733283 -1.4114308163144647
upperneck 24.49180202254446 -3.934731449252116 -0.8251562741284846
head 10.127186889281067 -2.022590668504639 -0.5458290528410404
lclavicle -1.6084238396736988e-15 -1.311480580967661e-15
lhumerus -37.50610264381177 13.059437886080106 76.41825539611064
lradius -10.650219373960446
lwrist -5.837839063143534
lhand -29.75146380975288 30.124826421003725
lfingers 7.125020000000055
lthumb -3.0770636180345043 60.09581520954082
rclavicle -1.6084238396736998e-15 -1.3114805809676614e-15
rhumerus -10.747995738929063 -24.045009990860503 -73.5680362258381
rradius -1.2649676353697146
rwrist 8.473902379969829
rhand -16.89623791803035 27.249993183221868
rfingers 7.125020000000055
rthumb 9.334469623634511 -8.54689786434459
47
root 0.3841919322337438 18.272328030799184 28.638246351460804 -5.044925621958795 -3.0381213364543824 -9.103181886522501
lfemur -36.61822424120254 -0.5487654074457572 -7.306772330736726
ltibia 45.5519257709927
lfoot -5.833478642496421 2.341003161030999
ltoes -1.897604239390537
rfemur 17.385615090497865 8.917829529047085 37.84884119871228
rtibia 3.8918977829683
rfoot -16.704111675868383 -8.254499486157332
rtoes 10.379148343359706
lowerback 7.2115570496958785 2.078509588886332 8.562340058884587
upperback 0.5638973406967924 3.9872070164461335 2.6495566030545383
thorax -3.351768962236588 1.7284553451430589 -2.9147588308490033
lowerneck -14.6352238189289 -3.154710063163617 -1.37807409053657
upperneck 24.364448123916905 -4.043865099436003 -0.7047770248307375
head 10.116372321199732 -2.0619307194804026 -0.5225710855296047
lclavicle -1.5319537984608735e-15 -1.2522659504313745e-15
lhumerus -37.75105970082916 13.652830383521652 76.13756388643326
lradius -10.450114962684431
lwrist -5.764980212980078
lhand -29.87887024982965 29.9480150261672
lfingers 7.125020000000055
lthumb -3.2001036105398506 59.91697030045242
rclavicle -1.5319537984608737e-15 -1.2522659504313745e-15
rhumerus -10.173689699454101 -23.022374645991885 -74.15607404261799
rradius -0.13478010478418412
rwrist 7.758909127211825
rhand -16.98142762127829 27.563833992038546
rfingers 7.125020000000055
rthumb 9.252325311754014 -8.619665775360835
48
root 0.43673759518296934 18.199357877430824 26.150288760962045 -4.72114964000301 -3.1657916489241407 -8.374714266051345
lfemur -34.82904473971018 -1.2570393673032947 -8.483748788798582
ltibia 38.36222214135671
lfoot -8.225467278851916 3.649557945808861
ltoes -2.5620732967554067
rfemur 16.658689748985346 8.489893617989807 36.322055942801754
rtibia 8.53737318734386
rfoot -15.177488126466564 -7.971207166002755
rtoes 9.600840545411241
lowerback 7.3429680251370835 2.2065398904092004 7.942034632109604
upperback 0.5553777161612294 4.0581148246519385 2.385071700591438
thorax -3.4040724544540306 1.7774608465331307 -2.8011724238146756
lowerneck -14.780383144883682 -3.199328412003644 -1.3563224994661995
upperneck 24.19562247796953 -4.119966790043982 -0.5566174131639059
head 10.097868997491737 -2.0865977735415475 -0.4876668098202127
lclavicle -1.391538322968709e-15 -1.143565986387556e-15
lhumerus -37.52516262082025 13.901146311293656 76.00462996876067
lradius -9.80283340159395
lwrist -5.650598172277068
lhand -30.00048877209912 29.7753221072637
lfingers 7.125020000000056
lthumb -3.3175484531255557 59.74385586914977
rclavicle -1.39153832296871e-15 -1.1435659863875561e-15
rhumerus -10.085330146578379 -22.458667237836295 -74.44462773665838
rradius 0.9059204506761986
rwrist 7.559604030150607
rhand -17.07151772164725 28.206092939093367
rfingers 7.125020000000056
rthumb 9.165531585257277 -8.799662503982356
